<svg data-testid="logo-atom" class="css-s5xdrg ezku0cg1" width="216" height="36" viewBox="0 0 216 36" fill="none" xmlns="http://www.w3.org/2000/svg" alt="EMF logo"><path fill-rule="evenodd" clip-rule="evenodd" d="M130.79 10.1638V10.1972C130.79 13.7371 133.521 16.3324 136.917 16.3371C139.547 16.3371 141.059 15.2065 142.178 13.6608L139.7 11.9003C138.988 12.7591 138.261 13.3363 137.017 13.3363C135.353 13.3363 134.181 11.9481 134.181 10.1686V10.1352C134.181 8.40816 135.353 7.0008 137.017 7.0008C138.155 7.0008 138.94 7.53989 139.619 8.38908L142.101 6.47124C141.044 5.01617 139.485 4 137.055 4C133.454 4 130.79 6.70978 130.79 10.1638ZM122.829 4.1472H126.005L131.07 16.0931H127.535L126.67 13.9749H122.083L121.231 16.0931H117.769L122.829 4.1472ZM125.713 11.4178L124.388 8.04967L123.044 11.4178H125.713ZM52.5658 4.23333H43V16.0982H52.6471V13.3025H46.2619V11.4181H51.9679V8.82756H46.2619V7.02899H52.5658V4.23333ZM57.5045 4.23333H54.2091V16.0982H63.2631V13.2119H57.5045V4.23333ZM64.5432 4.23333H67.8386V13.2119H73.5972V16.0982H64.5432V4.23333ZM84.4347 4.23333H74.8737V16.0982H84.5208V13.3025H78.1308V11.4181H83.8416V8.82756H78.1308V7.02899H84.4347V4.23333ZM86.0627 4.23333H89.1381L94.031 10.5021V4.23333H97.2929V16.0982H94.4089L89.3246 9.58611V16.0982H86.0627V4.23333ZM107.592 4.23333H104.11V16.0982H107.333V9.31417L110.361 13.9227H110.428L113.47 9.28078V16.0982H116.746V4.23333H113.264L110.428 8.82756L107.592 4.23333ZM147.263 4.1472H150.439L155.504 16.0931H151.97L151.104 13.9749H146.517L145.666 16.0931H142.203L147.263 4.1472ZM150.147 11.4178L148.823 8.04967L147.483 11.4178H150.147ZM162.026 4.23424H156.407H156.402V16.0991H159.697V12.5067H161.108H161.142L163.538 16.0991H167.345L164.509 11.9628C165.987 11.3331 166.953 10.1309 166.953 8.318V8.2846C166.953 7.11577 166.599 6.19979 165.901 5.52235C165.102 4.70655 163.849 4.23424 162.026 4.23424ZM163.643 8.51837C163.643 9.38188 162.993 9.92574 161.873 9.92574H159.702V7.08238H161.859C162.959 7.08238 163.643 7.55468 163.643 8.48498V8.51837ZM171.277 7.11486H167.709V4.23333H178.141V7.11486H174.573V16.0934H171.277V7.11486ZM182.62 4.23333H179.325V16.0982H182.62V11.5898H186.848V16.0982H190.144V4.23333H186.848V8.6749H182.62V4.23333ZM192.071 10.8952V4.23526H195.419V10.8237C195.419 12.5364 196.284 13.3474 197.609 13.3474C198.934 13.3474 199.8 12.5697 199.8 10.9095V4.23526H203.148V10.8046C203.148 14.6355 200.957 16.31 197.576 16.31C194.189 16.3148 192.071 14.6021 192.071 10.8952ZM210.549 4.23454H204.929H204.924V16.0994H208.22V12.507H209.631H209.664L212.061 16.0994H215.868L213.031 11.9631C214.509 11.3334 215.475 10.1312 215.475 8.31829V8.2849C215.475 7.11607 215.122 6.20008 214.423 5.52264C213.624 4.70684 212.371 4.23454 210.549 4.23454ZM212.171 8.51866C212.171 9.38217 211.52 9.92603 210.401 9.92603H208.229V7.08267H210.386C211.491 7.08267 212.171 7.55497 212.171 8.48527V8.51866ZM43 19.9017H52.5132V22.7833H46.2954V24.8013H51.9153V27.5254H46.2954V31.7666H43V19.9017ZM53.2101 25.8308V25.8642C53.2101 29.2705 55.9268 31.9994 59.6001 31.9994C63.2686 31.9994 66.0187 29.2371 66.0187 25.8308V25.7974C66.0187 22.3959 63.3021 19.667 59.6336 19.667C55.9603 19.667 53.2101 22.4293 53.2101 25.8308ZM62.6564 25.8308V25.8642C62.6564 27.5817 61.4463 29.032 59.6336 29.032C57.8304 29.032 56.5917 27.5435 56.5917 25.8308V25.7974C56.5917 24.0847 57.7969 22.6297 59.6001 22.6297C61.4128 22.6297 62.6564 24.1181 62.6564 25.8308ZM67.3278 26.5622V19.9022H70.6759V26.4954C70.6759 28.2081 71.5416 29.0191 72.8664 29.0191C74.1913 29.0191 75.057 28.2415 75.057 26.5813V19.9022H78.405V26.4763C78.405 30.3072 76.2144 31.9818 72.8329 31.9818C69.4514 31.9818 67.3278 30.2691 67.3278 26.5622ZM83.3176 19.9017H80.2421V31.7666H83.5041V25.2545L88.5835 31.7666H91.4724V19.9017H88.2105V26.1705L83.3176 19.9017ZM93.5786 19.9013H98.1654C102.413 19.9013 104.876 22.3391 104.876 25.7598V25.7932C104.876 29.2185 102.379 31.7613 98.0936 31.7613H93.5786V19.9013ZM98.218 28.8464C100.189 28.8464 101.494 27.7635 101.494 25.8456V25.8122C101.494 23.9135 100.189 22.8114 98.218 22.8114H96.8788V28.8417H98.218V28.8464ZM112.739 19.8197H109.558L104.498 31.7656H107.961L108.812 29.6474H113.399L114.265 31.7656H117.799L112.739 19.8197ZM111.117 23.7126L112.442 27.0855H109.778L111.117 23.7126ZM119.855 22.7833H116.292V19.9017H126.719V22.7833H123.151V31.7618H119.855V22.7833ZM127.811 19.9017H131.126V31.7618H127.811V19.9017ZM132.423 25.8647V25.8313C132.423 22.4298 135.173 19.6675 138.842 19.6675C142.51 19.6675 145.232 22.3964 145.232 25.7979V25.8313C145.232 29.2376 142.482 31.9999 138.813 31.9999C135.14 31.9999 132.423 29.271 132.423 25.8647ZM141.865 25.8647V25.8313C141.865 24.1186 140.626 22.6301 138.808 22.6301C137.005 22.6301 135.8 24.0852 135.8 25.7979V25.8313C135.8 27.544 137.039 29.0325 138.837 29.0325C140.659 29.0325 141.865 27.5822 141.865 25.8647ZM149.69 19.9017H146.614V31.7666H149.876V25.2545L154.956 31.7666H157.845V19.9017H154.583V26.1705L149.69 19.9017Z" fill="#FFF"></path><path d="M18 36C8.07457 36 0 27.9246 0 17.9982C0 8.07536 8.07457 0 18 0C27.9254 0 36 8.07536 36 17.9982C35.9965 27.9246 27.9219 36 18 36ZM18 2.44098C9.42033 2.44098 2.43721 9.42125 2.43721 17.9982C2.43721 26.5787 9.42033 33.559 17.9965 33.559C26.5726 33.559 33.5557 26.5787 33.5557 17.9982C33.5557 9.42125 26.5761 2.44098 18 2.44098ZM19.4129 33.0362C11.9918 33.0362 5.95526 26.9991 5.95526 19.5773C5.95526 12.159 11.9918 6.11834 19.4129 6.11834C26.834 6.11834 32.8705 12.1554 32.8705 19.5773C32.8705 26.9991 26.834 33.0362 19.4129 33.0362ZM19.4129 8.4922C13.3022 8.4922 8.32889 13.466 8.32889 19.5773C8.32889 25.6921 13.3022 30.6659 19.4129 30.6659C25.5271 30.6659 30.5004 25.6921 30.5004 19.5773C30.5004 13.466 25.5271 8.4922 19.4129 8.4922ZM17.9965 27.1016C13.0126 27.1016 8.95761 23.0462 8.95761 18.0618C8.95761 13.081 13.0126 9.02561 17.9965 9.02561C22.9804 9.02561 27.0318 13.081 27.0318 18.0618C27.0318 23.0462 22.9804 27.1016 17.9965 27.1016ZM17.9965 11.3288C14.2841 11.3288 11.2606 14.3527 11.2606 18.0654C11.2606 21.778 14.2841 24.8019 17.9965 24.8019C21.7088 24.8019 24.7323 21.778 24.7323 18.0654C24.7323 14.3491 21.7088 11.3288 17.9965 11.3288Z" fill="#FFF"></path></svg>