<svg id="Capa_1" data-name="Capa 1" xmlns="http://www.w3.org/2000/svg" xmlns:xlink="http://www.w3.org/1999/xlink" viewBox="0 0 772.3 333.5"><defs><style>.cls-1{fill:none;}.cls-2{clip-path:url(#clip-path);}.cls-3{fill:url(#linear-gradient);}.cls-4{fill:#fff;}.cls-5{clip-path:url(#clip-path-2);}.cls-6{fill:url(#linear-gradient-2);}</style><clipPath id="clip-path" transform="translate(33.6 56.5)"><path class="cls-1" d="M92.9,23.1l-6.5.3a83.6,83.6,0,0,0-76.9,78c-2.9,43.7,19.4,75.2,47.4,92.3-28.6-20.9-41.5-60.4-29.5-97.2a81.4,81.4,0,0,1,7.7-16.7H25A152.5,152.5,0,0,1,61.2,52.9a91.3,91.3,0,0,1,44.9-15c22.3-1.4,44.5,7.9,61.8,28.9C153.5,39.7,123.7,23.1,92.9,23.1Z"/></clipPath><linearGradient id="linear-gradient" x1="-17.06" y1="107.5" x2="191.28" y2="107.5" gradientTransform="translate(181.4 6.3) rotate(82)" gradientUnits="userSpaceOnUse"><stop offset="0" stop-color="#fff"/><stop offset="0.15" stop-color="#fff"/><stop offset="0.4" stop-color="#fff" stop-opacity="0.67"/><stop offset="0.66" stop-color="#fff" stop-opacity="0.36"/><stop offset="0.84" stop-color="#fff" stop-opacity="0.17"/><stop offset="0.92" stop-color="#fff" stop-opacity="0.1"/><stop offset="1" stop-color="#fff" stop-opacity="0.1"/></linearGradient><clipPath id="clip-path-2" transform="translate(33.6 56.5)"><path class="cls-1" d="M163.8,23.4c28.2,19,41.6,63.3,27.7,101.4a93.3,93.3,0,0,1-4.9,11.1h9.2s-14.2,18.1-34,27.6c-10.7,7.5-25.1,13.7-44.4,16.3-29.5,3.9-52-12.2-65.5-29.9,13,25.2,43.6,42.1,66.4,43.7,49.8,3.3,89.7-30.6,92.9-78.1C214.2,70.2,190.7,40.2,163.8,23.4Z"/></clipPath><linearGradient id="linear-gradient-2" x1="1138.38" y1="537.26" x2="1139.38" y2="537.26" gradientTransform="matrix(-175.52, 0, 0, 175.52, 200028.65, -94190.48)" xlink:href="#linear-gradient"/></defs><g class="cls-2"><rect class="cls-3" x="-8.6" y="15.8" width="191.3" height="183.5" transform="translate(2.1 235.4) rotate(-82)"/></g><path class="cls-4" d="M134.9,196.1c-51.8,4.3-93.2-34.4-95.9-81.8a73.7,73.7,0,0,1,5.1-30.8l3.8,14.8S49.2,73,72.1,49.2A143.3,143.3,0,0,0,30.3,77.5h9a92.9,92.9,0,0,0-13.8,55.8c3,39.4,36.2,73.4,78.1,76.2,47.1,3.2,72.2-19.9,92.2-46.1C179.3,181.2,160.8,193.9,134.9,196.1Z" transform="translate(33.6 56.5)"/><g class="cls-5"><rect class="cls-6" x="14.4" y="-7.8" width="237.3" height="235.93" transform="translate(-3.3 197.8) rotate(-50)"/></g><path class="cls-4" d="M85,20.9c51.8-4.4,93.3,34.3,95.9,81.7a73.9,73.9,0,0,1-5.1,30.9l-3.7-14.8s-1.2,25.8-24.1,49.7a177,177,0,0,0,43.1-30.3l-9.4.2c10.3-16.5,14.2-35.7,12.7-54.7-3-39.4-36.2-73.4-78.1-76.3-47.1-3.1-72.2,20-92.2,46.1C40.7,35.7,59.1,23,85,20.9Z" transform="translate(33.6 56.5)"/><path class="cls-4" d="M291,91.3a21.3,21.3,0,0,1-8.7,5.7,37.5,37.5,0,0,1-12.4,2,25.2,25.2,0,0,1-12.5-3.1,20.4,20.4,0,0,1-8.3-9.1,30.3,30.3,0,0,1-3-13.9V69.1a34.3,34.3,0,0,1,2.7-14.2,21.5,21.5,0,0,1,8-9.3,23.4,23.4,0,0,1,12.3-3.1c6.5,0,11.6,1.5,15.3,4.6s5.9,7.7,6.6,13.6H279.9q-.7-4.7-3.3-6.9a10.6,10.6,0,0,0-7.1-2.2,10.2,10.2,0,0,0-8.9,4.3c-2,2.9-3,7.2-3,13v3.5c0,5.8,1.1,10.1,3.3,13.1s5.4,4.4,9.6,4.4,7.3-.9,9.1-2.7V77.7H269.3V69.3H291Z" transform="translate(33.6 56.5)"/><path class="cls-4" d="M307.1,98.2h-11v-58h11Z" transform="translate(33.6 56.5)"/><path class="cls-4" d="M310.5,77.4a24.8,24.8,0,0,1,2.3-10.8,17.4,17.4,0,0,1,6.8-7.4,19.8,19.8,0,0,1,10.2-2.6,18.9,18.9,0,0,1,13.5,5c3.5,3.4,5.5,8,5.9,13.8v2.8c0,6.3-1.7,11.3-5.2,15.1S335.8,99,329.9,99s-10.6-1.9-14.1-5.7-5.3-8.9-5.3-15.4Zm10.9.8c0,3.9.7,6.8,2.2,8.9a7.9,7.9,0,0,0,12.5,0c1.5-2,2.2-5.2,2.2-9.7s-.7-6.8-2.2-8.9a7.3,7.3,0,0,0-6.3-3.1,7.1,7.1,0,0,0-6.2,3.1C322.1,70.6,321.4,73.8,321.4,78.2Z" transform="translate(33.6 56.5)"/><path class="cls-4" d="M388.9,78.2q0,9.8-4.2,15.3C381.9,97.2,378,99,373,99a12.7,12.7,0,0,1-10.6-5.1l-.5,4.3h-9.8v-58H363V61a12.5,12.5,0,0,1,9.9-4.4,14.1,14.1,0,0,1,11.8,5.5c2.8,3.6,4.2,8.8,4.2,15.5ZM378,77.3c0-4.1-.6-7.1-2-9a6.4,6.4,0,0,0-5.8-2.9c-3.5,0-5.9,1.4-7.2,4.3V85.9c1.3,2.8,3.8,4.3,7.3,4.3s5.8-1.8,6.9-5.3A27.7,27.7,0,0,0,378,77.3Z" transform="translate(33.6 56.5)"/><path class="cls-4" d="M415.5,98.2a11.7,11.7,0,0,1-1.1-3.6A13.4,13.4,0,0,1,404.1,99a14.7,14.7,0,0,1-10-3.5,11.2,11.2,0,0,1-3.9-8.8,11.5,11.5,0,0,1,4.8-9.9c3.2-2.4,7.8-3.5,13.9-3.5h5V70.9a6.9,6.9,0,0,0-1.4-4.5c-1-1.2-2.5-1.7-4.6-1.7a6.1,6.1,0,0,0-4.3,1.3,4.4,4.4,0,0,0-1.6,3.6H391.1a11.1,11.1,0,0,1,2.2-6.6,14.4,14.4,0,0,1,6.2-4.7,22.9,22.9,0,0,1,9-1.7c5,0,9,1.3,12,3.8s4.4,6.1,4.4,10.7V88.8a20,20,0,0,0,1.6,8.8v.6Zm-9.1-7.6a9.6,9.6,0,0,0,4.5-1,7,7,0,0,0,3-2.9V79.6h-4c-5.5,0-8.4,1.9-8.8,5.7v.6a4.6,4.6,0,0,0,1.4,3.4A5.6,5.6,0,0,0,406.4,90.6Z" transform="translate(33.6 56.5)"/><path class="cls-4" d="M440.9,98.2H430v-58h10.9Z" transform="translate(33.6 56.5)"/><path class="cls-4" d="M501.3,52.4H484.5V98.2H473.1V52.4H456.5V43.2h44.8Z" transform="translate(33.6 56.5)"/><path class="cls-4" d="M493.6,77.4A23.5,23.5,0,0,1,496,66.6a16.6,16.6,0,0,1,6.7-7.4A20.5,20.5,0,0,1,513,56.6a18.9,18.9,0,0,1,13.5,5c3.4,3.4,5.4,8,5.8,13.8v2.8c0,6.3-1.8,11.3-5.3,15.1S518.9,99,513,99s-10.6-1.9-14.1-5.7-5.3-8.9-5.3-15.4Zm11,.8c0,3.9.7,6.8,2.2,8.9a7,7,0,0,0,6.2,3.1,7.1,7.1,0,0,0,6.2-3.1c1.5-2,2.3-5.2,2.3-9.7s-.8-6.8-2.3-8.9a7.2,7.2,0,0,0-6.2-3.1,7,7,0,0,0-6.2,3.1C505.3,70.6,504.6,73.8,504.6,78.2Z" transform="translate(33.6 56.5)"/><path class="cls-4" d="M559.7,94.1A13.9,13.9,0,0,1,548.5,99c-4.3,0-7.7-1.3-10-3.8S535,89,535,84.1V57.3h10.9V83.8c0,4.2,1.9,6.4,5.8,6.4s6.3-1.3,7.6-3.9v-29h11V98.2H560Z" transform="translate(33.6 56.5)"/><path class="cls-4" d="M597.6,67.6l-3.9-.3q-6.2,0-8.1,4.2V98.2H574.7V57.3H585l.3,4.9c2.2-3.7,5.2-5.6,9.1-5.6a9.7,9.7,0,0,1,3.4.5Z" transform="translate(33.6 56.5)"/><path class="cls-4" d="M599,46.8a5.4,5.4,0,0,1,1.6-4.1,6.5,6.5,0,0,1,4.5-1.6,6.4,6.4,0,0,1,4.4,1.6,5.5,5.5,0,0,1,1.7,4.1,5.3,5.3,0,0,1-1.7,4,6,6,0,0,1-4.4,1.6,6.2,6.2,0,0,1-4.5-1.6A5.2,5.2,0,0,1,599,46.8Zm11.6,51.4h-11V57.3h11Z" transform="translate(33.6 56.5)"/><path class="cls-4" d="M637.8,86.9a3.3,3.3,0,0,0-2-3.1,20.7,20.7,0,0,0-6.3-2.1c-9.8-2-14.6-6.2-14.6-12.4a11.4,11.4,0,0,1,4.5-9.1c3-2.4,6.9-3.6,11.8-3.6s9.3,1.2,12.5,3.7a11.4,11.4,0,0,1,4.6,9.5H637.4a5.3,5.3,0,0,0-1.5-3.9,6.5,6.5,0,0,0-4.7-1.5,6.7,6.7,0,0,0-4.3,1.2,3.9,3.9,0,0,0-1.5,3.2,3.4,3.4,0,0,0,1.7,2.9,16.2,16.2,0,0,0,5.8,1.9,55,55,0,0,1,6.9,1.9c5.8,2.1,8.6,5.8,8.6,11a10.6,10.6,0,0,1-4.8,9c-3.2,2.3-7.3,3.5-12.4,3.5a22.1,22.1,0,0,1-9.1-1.8,15.7,15.7,0,0,1-6.2-5.1,11.7,11.7,0,0,1-2.3-6.9H624a5.7,5.7,0,0,0,2.1,4.5,8.7,8.7,0,0,0,5.4,1.5,7.8,7.8,0,0,0,4.7-1.2A3.5,3.5,0,0,0,637.8,86.9Z" transform="translate(33.6 56.5)"/><path class="cls-4" d="M661.8,57.3l.4,4.6a14.4,14.4,0,0,1,11.7-5.3c5.3,0,8.9,2.1,10.9,6.2,2.8-4.1,6.9-6.2,12.3-6.2s7.7,1.3,9.9,3.9,3.2,6.4,3.2,11.6V98.2h-11V72.1c0-2.3-.4-4-1.3-5.1s-2.5-1.6-4.8-1.6a6.8,6.8,0,0,0-6.8,4.7V98.2H675.4V72.1c0-2.3-.5-4.1-1.4-5.1s-2.5-1.6-4.8-1.6a7,7,0,0,0-6.7,3.9V98.2H651.6V57.3Z" transform="translate(33.6 56.5)"/><path class="cls-4" d="M254.1,150.2v22.4h-4.6V117.5h18.7c5.7,0,10.2,1.5,13.6,4.4s4.9,7,4.9,12.1-1.6,9.1-4.8,11.9-7.8,4.3-13.8,4.3Zm0-4h14.1c4.5,0,8-1.1,10.3-3.2s3.6-5.1,3.6-9a12,12,0,0,0-3.6-9.1c-2.3-2.2-5.7-3.4-10-3.4H254.1Z" transform="translate(33.6 56.5)"/><path class="cls-4" d="M297.2,172.6h-4.5V114.5h4.5Z" transform="translate(33.6 56.5)"/><path class="cls-4" d="M331.5,172.6a18.8,18.8,0,0,1-.9-5.7,15.9,15.9,0,0,1-6.1,4.7,17.1,17.1,0,0,1-7.8,1.7,13.6,13.6,0,0,1-9.5-3.3,11.3,11.3,0,0,1,1.3-17.7c3.3-2.4,7.9-3.5,13.9-3.5h8.2v-4.7a9,9,0,0,0-2.7-6.9c-1.8-1.6-4.5-2.5-7.9-2.5a11.6,11.6,0,0,0-7.8,2.5,7,7,0,0,0-3.1,5.8h-4.6c0-3.2,1.5-6,4.6-8.4a17.2,17.2,0,0,1,11.1-3.6c4.6,0,8.2,1.2,10.8,3.4a12.6,12.6,0,0,1,4.1,9.6v19.3c0,4,.4,6.9,1.2,8.9v.5Zm-14.2-3.3a14.9,14.9,0,0,0,8.1-2.2,13.2,13.2,0,0,0,5.2-5.8v-9h-8.1c-4.5,0-8.1.8-10.6,2.4a7.5,7.5,0,0,0-3.8,6.6,7.2,7.2,0,0,0,2.5,5.7A9.3,9.3,0,0,0,317.3,169.3Z" transform="translate(33.6 56.5)"/><path class="cls-4" d="M367.7,162.2a6.3,6.3,0,0,0-2.7-5.4,19.2,19.2,0,0,0-8.1-3.2,38.8,38.8,0,0,1-8.5-2.7,11.6,11.6,0,0,1-4.4-3.6,9.1,9.1,0,0,1-1.5-5.2,9.7,9.7,0,0,1,4.1-8,16.2,16.2,0,0,1,10.3-3.2c4.6,0,8.2,1.1,11,3.4a10.8,10.8,0,0,1,4.1,8.8h-4.5a7.1,7.1,0,0,0-3-5.9,11.7,11.7,0,0,0-7.6-2.4,11.3,11.3,0,0,0-7.1,2,6,6,0,0,0-2.7,5.1,5.7,5.7,0,0,0,2.2,4.8c1.5,1.1,4.2,2.1,8.2,3a45.1,45.1,0,0,1,8.9,3,11.2,11.2,0,0,1,4.4,3.8,9.5,9.5,0,0,1,1.5,5.4,9.7,9.7,0,0,1-4.2,8.3c-2.8,2.1-6.4,3.1-10.9,3.1s-8.6-1.1-11.6-3.4a10.6,10.6,0,0,1-4.4-8.8h4.5a8,8,0,0,0,3.3,6.2,13.7,13.7,0,0,0,8.2,2.2,12.7,12.7,0,0,0,7.6-2.1A6,6,0,0,0,367.7,162.2Z" transform="translate(33.6 56.5)"/><path class="cls-4" d="M385.6,121.2v10.5h8.5v3.7h-8.5v27.3a8.6,8.6,0,0,0,1.2,5,4.8,4.8,0,0,0,4.1,1.7,22.1,22.1,0,0,0,3.7-.4l.2,3.7a15.9,15.9,0,0,1-4.9.6c-3.1,0-5.3-.9-6.7-2.7s-2.1-4.4-2.1-7.9V135.4h-7.6v-3.7h7.6V121.2Z" transform="translate(33.6 56.5)"/><path class="cls-4" d="M399.3,119.9a3.3,3.3,0,0,1,.8-2.2,3,3,0,0,1,2.3-.9,3.2,3.2,0,0,1,2.3.9,3.3,3.3,0,0,1,.8,2.2,3.2,3.2,0,0,1-.8,2.1,3.2,3.2,0,0,1-2.3.9,3,3,0,0,1-2.3-.9A3.2,3.2,0,0,1,399.3,119.9Zm5.3,52.7h-4.5V131.7h4.5Z" transform="translate(33.6 56.5)"/><path class="cls-4" d="M428.1,169.5a12.1,12.1,0,0,0,8-2.7,9.2,9.2,0,0,0,3.4-6.9h4.4a13.3,13.3,0,0,1-2.4,6.9,15,15,0,0,1-5.7,4.8,18.1,18.1,0,0,1-7.7,1.7,15.8,15.8,0,0,1-12.7-5.6c-3.1-3.7-4.7-8.7-4.7-15v-1.4a25.9,25.9,0,0,1,2.1-10.7,16,16,0,0,1,6.1-7.2,17.3,17.3,0,0,1,9.2-2.5,16.1,16.1,0,0,1,11.1,4,14.8,14.8,0,0,1,4.7,10.6h-4.4a11.3,11.3,0,0,0-3.4-7.8,11.6,11.6,0,0,0-8-2.9c-4.1,0-7.2,1.4-9.5,4.4s-3.4,7.1-3.4,12.4v1.3c0,5.2,1.2,9.3,3.4,12.2A11.4,11.4,0,0,0,428.1,169.5Z" transform="translate(33.6 56.5)"/><path class="cls-4" d="M473.5,162.2a6.3,6.3,0,0,0-2.7-5.4,19.2,19.2,0,0,0-8.1-3.2,37.1,37.1,0,0,1-8.5-2.7,10.8,10.8,0,0,1-4.4-3.6,9.1,9.1,0,0,1-1.5-5.2,9.7,9.7,0,0,1,4.1-8,16.2,16.2,0,0,1,10.3-3.2c4.6,0,8.2,1.1,11,3.4a11,11,0,0,1,4.1,8.8h-4.5a7.1,7.1,0,0,0-3-5.9,11.7,11.7,0,0,0-7.6-2.4c-3,0-5.4.6-7.2,2a6,6,0,0,0-2.7,5.1,5.7,5.7,0,0,0,2.3,4.8c1.5,1.1,4.2,2.1,8.2,3a45.1,45.1,0,0,1,8.9,3,11.2,11.2,0,0,1,4.4,3.8,9.5,9.5,0,0,1,1.5,5.4,9.7,9.7,0,0,1-4.2,8.3c-2.8,2.1-6.4,3.1-10.9,3.1s-8.6-1.1-11.6-3.4a10.6,10.6,0,0,1-4.4-8.8h4.5a8,8,0,0,0,3.3,6.2,13.7,13.7,0,0,0,8.2,2.2,12.7,12.7,0,0,0,7.6-2.1A6.3,6.3,0,0,0,473.5,162.2Z" transform="translate(33.6 56.5)"/><path class="cls-4" d="M506,172.6h-4.6V117.5H506Z" transform="translate(33.6 56.5)"/><path class="cls-4" d="M520.3,131.7l.2,7a15.1,15.1,0,0,1,13.3-7.8c4.4,0,7.7,1.3,9.8,3.7s3.2,6.2,3.3,11.1v26.9h-4.5V145.7c-.1-3.7-.8-6.4-2.4-8.2s-3.9-2.7-7.3-2.7a11.3,11.3,0,0,0-7.4,2.7,15.2,15.2,0,0,0-4.8,7.1v28H516V131.7Z" transform="translate(33.6 56.5)"/><path class="cls-4" d="M554.4,119.9a3.3,3.3,0,0,1,.8-2.2,3.4,3.4,0,0,1,4.6,0,2.9,2.9,0,0,1,.8,2.2,2.8,2.8,0,0,1-.8,2.1,3.4,3.4,0,0,1-4.6,0A3.2,3.2,0,0,1,554.4,119.9Zm5.3,52.7h-4.5V131.7h4.5Z" transform="translate(33.6 56.5)"/><path class="cls-4" d="M575.2,121.2v10.5h8.4v3.7h-8.4v27.3a8.6,8.6,0,0,0,1.2,5,4.8,4.8,0,0,0,4.1,1.7,22.1,22.1,0,0,0,3.7-.4v3.7a14.8,14.8,0,0,1-4.8.6c-3.1,0-5.3-.9-6.8-2.7s-2.1-4.4-2.1-7.9V135.4h-7.5v-3.7h7.5V121.2Z" transform="translate(33.6 56.5)"/><path class="cls-4" d="M588.9,119.9a2.9,2.9,0,0,1,.8-2.2,3,3,0,0,1,2.3-.9,3.2,3.2,0,0,1,2.3.9,3.3,3.3,0,0,1,.8,2.2,3.2,3.2,0,0,1-.8,2.1,3.2,3.2,0,0,1-2.3.9,3,3,0,0,1-2.3-.9A2.8,2.8,0,0,1,588.9,119.9Zm5.3,52.7h-4.5V131.7h4.5Z" transform="translate(33.6 56.5)"/><path class="cls-4" d="M628.4,172.6a28.3,28.3,0,0,1-.9-5.7,15.6,15.6,0,0,1-6,4.7,17.7,17.7,0,0,1-7.8,1.7,14,14,0,0,1-9.6-3.3,11.4,11.4,0,0,1,1.4-17.7c3.3-2.4,7.9-3.5,13.8-3.5h8.2v-4.7a9,9,0,0,0-2.7-6.9c-1.8-1.6-4.4-2.5-7.9-2.5a12,12,0,0,0-7.8,2.5A7,7,0,0,0,606,143h-4.5q0-4.8,4.5-8.4a17.3,17.3,0,0,1,11.2-3.6c4.5,0,8.1,1.2,10.7,3.4s4,5.5,4.1,9.6v19.3c0,4,.4,6.9,1.3,8.9v.5Zm-14.2-3.3a14.9,14.9,0,0,0,8.1-2.2,12.7,12.7,0,0,0,5.2-5.8v-9h-8.1c-4.5,0-8,.8-10.6,2.4a7.5,7.5,0,0,0-3.8,6.6,7.3,7.3,0,0,0,2.6,5.7A9.2,9.2,0,0,0,614.2,169.3Z" transform="translate(33.6 56.5)"/><path class="cls-4" d="M647.2,121.2v10.5h8.5v3.7h-8.5v27.3a8.6,8.6,0,0,0,1.2,5,5,5,0,0,0,4.2,1.7,22.3,22.3,0,0,0,3.6-.4l.2,3.7a15.6,15.6,0,0,1-4.8.6c-3.1,0-5.4-.9-6.8-2.7s-2.1-4.4-2.1-7.9V135.4h-7.5v-3.7h7.5V121.2Z" transform="translate(33.6 56.5)"/><path class="cls-4" d="M660.9,119.9a2.9,2.9,0,0,1,.9-2.2,2.8,2.8,0,0,1,2.2-.9,3,3,0,0,1,2.3.9,2.9,2.9,0,0,1,.9,2.2,2.9,2.9,0,0,1-.9,2.1,3,3,0,0,1-2.3.9,2.8,2.8,0,0,1-2.2-.9A2.9,2.9,0,0,1,660.9,119.9Zm5.4,52.7h-4.6V131.7h4.6Z" transform="translate(33.6 56.5)"/><path class="cls-4" d="M687.4,166.3l12.4-34.6h4.7l-15.3,40.9h-3.7l-15.3-40.9h4.7Z" transform="translate(33.6 56.5)"/><path class="cls-4" d="M723.4,173.3a17.5,17.5,0,0,1-16-9.7,22,22,0,0,1-2.4-10.3v-1.6a24.7,24.7,0,0,1,2.3-10.7,18.5,18.5,0,0,1,6.4-7.4,15.7,15.7,0,0,1,8.8-2.7c5,0,8.9,1.7,11.8,5.1s4.4,8,4.4,13.9v2.5H709.5v.9a17.6,17.6,0,0,0,4,11.6,12.7,12.7,0,0,0,10,4.6,14.8,14.8,0,0,0,6.5-1.3,14.2,14.2,0,0,0,5-4.3l2.8,2.2Q732.9,173.3,723.4,173.3Zm-.9-38.5a11.4,11.4,0,0,0-8.6,3.7,17.6,17.6,0,0,0-4.2,10.1h24.5v-.5c-.1-4-1.2-7.2-3.4-9.6A10.2,10.2,0,0,0,722.5,134.8Z" transform="translate(33.6 56.5)"/></svg>